<?xml version="1.0" encoding="UTF-8" standalone="no"?>
<!-- Created with Inkscape (http://www.inkscape.org/) -->

<svg width="16" height="16" viewBox="0 0 12.7 12.7" version="1.1" id="svg116" inkscape:export-filename="bitmap.svg"
   inkscape:export-xdpi="96" inkscape:export-ydpi="96" inkscape:version="1.2.2 (732a01da63, 2022-12-09)"
   sodipodi:docname="home.svg" xmlns:inkscape="http://www.inkscape.org/namespaces/inkscape"
   xmlns:sodipodi="http://sodipodi.sourceforge.net/DTD/sodipodi-0.dtd" xmlns:xlink="http://www.w3.org/1999/xlink"
   xmlns="http://www.w3.org/2000/svg" xmlns:svg="http://www.w3.org/2000/svg">
   <sodipodi:namedview id="namedview118" pagecolor="#ffffff" bordercolor="#000000" borderopacity="0.25"
      inkscape:showpageshadow="2" inkscape:pageopacity="0.0" inkscape:pagecheckerboard="false"
      inkscape:deskcolor="#d1d1d1" inkscape:document-units="px" showgrid="false" inkscape:zoom="12.500449"
      inkscape:cx="27.839" inkscape:cy="24.639115" inkscape:window-width="1920" inkscape:window-height="1057"
      inkscape:window-x="1912" inkscape:window-y="-8" inkscape:window-maximized="1" inkscape:current-layer="layer1" />
   <defs id="defs113" />
   <g inkscape:label="Capa 1" inkscape:groupmode="layer" id="layer1">
      <rect style="fill:#333333;stroke-width:0.424752" id="rect120" width="10.96394" height="6.4767675" x="0.97363168"
         y="5.7147951" ry="0.068447709" />
      <path sodipodi:type="star" style="fill:#333333;stroke-width:0.264583" id="path583" inkscape:flatsided="false"
         sodipodi:sides="3" sodipodi:cx="2.4764111" sodipodi:cy="2.3494155" sodipodi:r1="3.0882647"
         sodipodi:r2="1.5441324" sodipodi:arg1="0.52359878" sodipodi:arg2="1.5707963" inkscape:rounded="0"
         inkscape:randomized="0"
         d="m 5.1509268,3.8935479 -2.6745157,0 -2.67451569,0 L 1.1391532,1.5773494 2.4764111,-0.73884916 3.8136689,1.5773493 Z"
         inkscape:transform-center-y="-0.85672977" transform="matrix(2.0644224,0,0,1.1096585,1.353826,1.1604823)" />
      <rect style="fill:#4d4d4d;stroke-width:0.264583" id="rect585" width="1.4816134" height="2.497577" x="8.5510263"
         y="2.0319271" ry="0.026115997" />
      <rect style="fill:#333333;stroke-width:0.264583" id="rect755" width="1.8202677" height="2.2012539" x="2.2464962"
         y="7.0469189" ry="0.91013384" />
      <rect style="fill:#333333;stroke-width:0.264583" id="rect759" width="2.0954247" height="3.0055587" x="2.6245723"
         y="6.9424171" ry="0.010582954" />
      <rect style="fill:#333333;stroke-width:0.264583" id="rect761" width="2.0954247" height="3.0055587" x="8.3393669"
         y="7.0270805" ry="0.010582954" />
      <rect style="fill:#6c6753;stroke-width:0.264583" id="rect1233" width="2.4340792" height="3.0902224" x="2.3705812"
         y="7.0059152" ry="0.068447709" />
      <rect style="fill:#6c6753;stroke-width:0.264583" id="use1241" width="2.4340792" height="3.0902224" x="8.2970362"
         y="7.0059152" ry="0.068447709" />
      <use x="0" y="0" xlink:href="#use1241" id="use1243"
         transform="matrix(0.97474688,0,0,1.0890411,-2.6287351,1.1752876)" />
      <path style="fill:#918a6f;stroke-width:0.0211659"
         d="m 2.371326,10.023448 c -0.030311,-0.056637 -0.030311,-2.9305392 0,-2.9871756 0.021257,-0.039721 0.056865,-0.04094 1.195129,-0.04094 1.1382645,0 1.1738713,0.00122 1.1951292,0.04094 0.030311,0.056636 0.030311,2.930539 0,2.9871756 -0.021257,0.03972 -0.078031,-2.8164574 -1.2162951,-2.8164574 -1.1382642,0 -1.1527052,2.8561974 -1.1739631,2.8164574 z"
         id="path1318" sodipodi:nodetypes="csssssc" />
      <use x="0" y="0" xlink:href="#path1318" id="use1320" />
      <use x="0" y="0" xlink:href="#use1320" id="use1322" />
      <use x="0" y="0" xlink:href="#use1320" id="use1322-3" transform="translate(5.915871,0.06259651)"
         style="fill:#ffb380" />
      <use x="0" y="0" xlink:href="#use1243" id="use1353" style="fill:#ffcc00" />
      <path style="fill:#2b1100;stroke-width:0.0799971"
         d="m 20.687816,45.831811 c -0.06345,-0.165353 -0.06345,-12.221116 0,-12.386469 0.04346,-0.113256 0.508607,-0.126539 4.431282,-0.126539 3.922675,0 4.387822,0.01328 4.431282,0.126539 0.06345,0.165353 0.06345,12.221116 0,12.386469 -0.04346,0.113256 -0.508607,0.126539 -4.431282,0.126539 -3.922675,0 -4.387821,-0.01328 -4.431282,-0.126539 z"
         id="path1424" transform="scale(0.26458333)" />
      <ellipse style="fill:#4d4d4d;stroke-width:0.264583" id="path1874" cx="8.7415199" cy="1.2487885" rx="0.16932726"
         ry="0.21165906" />
      <ellipse style="fill:#4d4d4d;stroke-width:0.264583" id="path1876" cx="9.5458241" cy="1.2382056" rx="0.10582953"
         ry="0.28573972" />
      <ellipse style="fill:#4d4d4d;stroke-width:0.264583" id="path1878" cx="9.1119223" cy="0.86780214" rx="0.1799102"
         ry="0.27515677" />
      <ellipse style="fill:#4d4d4d;stroke-width:0.264583" id="path1880" cx="9.3553305" cy="1.6509408" rx="0.21165906"
         ry="0.12699544" />
      <ellipse style="fill:#4d4d4d;stroke-width:0.264583" id="path1884" cx="9.2389183" cy="1.0794612" rx="0.53973061"
         ry="0.78313851" />
      <ellipse style="fill:#4d4d4d;stroke-width:0.264583" id="path1886" cx="8.8685141" cy="0.82547039" rx="0.31748858"
         ry="0.59264541" />
      <ellipse style="fill:#4d4d4d;stroke-width:0.264583" id="path1888" cx="8.593358" cy="1.1429589" rx="0.48681584"
         ry="0.46564993" />
      <ellipse style="fill:#4d4d4d;stroke-width:0.264583" id="path1890" cx="8.45578" cy="0.55031353" rx="0.1799102"
         ry="0.21165906" />
      <ellipse style="fill:#4d4d4d;stroke-width:0.264583" id="path1892" cx="9.6834021" cy="0.88896805" rx="0.24340792"
         ry="0.44448403" />
      <ellipse style="fill:#4d4d4d;stroke-width:0.264583" id="path1894" cx="8.9743443" cy="0.63497716" rx="0.71964079"
         ry="0.50798178" />
      <ellipse style="fill:#4d4d4d;stroke-width:0.264583" id="path1896" cx="9.6199045" cy="1.3122861" rx="0.30690566"
         ry="0.25399089" />
      <ellipse style="fill:#4d4d4d;stroke-width:0.264583" id="path1898" cx="10.149053" cy="0.93129987" rx="0.45506701"
         ry="0.57147944" />
      <ellipse style="fill:#4d4d4d;stroke-width:0.264583" id="path1900" cx="9.1648369" cy="0.97363168" rx="0.59264541"
         ry="0.7408067" />
      <ellipse style="fill:#4d4d4d;stroke-width:0.264583" id="path1902" cx="9.3447485" cy="0.83605331" rx="0.58206242"
         ry="0.64556015" />
      <path style="fill:#333333;fill-opacity:1;stroke-width:0.0799971"
         d="m 32.338194,12.419554 0.02064,-4.6598327 h 2.759901 2.759901 l 0.02064,4.6598327 0.02064,4.659833 H 35.118739 32.31755 Z"
         id="path2249" transform="scale(0.26458333)" />
      <path style="fill:#b3b3b3;fill-opacity:1;stroke-width:0.0799971"
         d="M 34.356403,6.8498046 C 34.058731,6.7145851 33.681949,6.3780805 33.413498,6.0076939 33.317268,5.8749238 33.269721,5.8673041 33.039108,5.9476961 32.467734,6.1468783 31.675843,5.9680284 31.211094,5.5348358 30.570377,4.9376249 30.552783,3.7040803 31.17693,3.1396494 c 0.127253,-0.1150787 0.148661,-0.217504 0.119345,-0.5710143 -0.06859,-0.8271456 0.258183,-1.2891233 1.235272,-1.74635848 0.64886,-0.30363832 1.476262,-0.3773001 2.244911,-0.19985952 0.298251,0.0688503 0.686268,0.14864718 0.862262,0.17732646 0.546477,0.0890519 1.360745,0.68258364 1.496928,1.09113254 0.02557,0.076715 0.107362,0.045961 0.292845,-0.1101125 0.854327,-0.7188687 2.036739,-0.2956837 2.455935,0.8789784 0.128801,0.360926 0.144906,1.2261093 0.03049,1.6380832 -0.187316,0.6744662 -0.963826,1.3444762 -1.553247,1.3402154 -0.133672,-9.664e-4 -0.402077,-0.073909 -0.596457,-0.1620953 L 37.411798,5.3156068 37.205235,5.5102596 c -0.11361,0.1070591 -0.341559,0.2501626 -0.506553,0.3180077 -0.164994,0.067845 -0.299989,0.155668 -0.299989,0.1951621 0,0.1429743 -0.594676,0.6797362 -0.913502,0.8245388 -0.411869,0.1870601 -0.719933,0.1875613 -1.128788,0.00184 z"
         id="path2320" transform="scale(0.26458333)" />
   </g>
</svg>