<?xml version="1.0" encoding="UTF-8" standalone="no"?>
<!-- Created with Inkscape (http://www.inkscape.org/) -->

<svg
   width="16"
   height="16"
   viewBox="0 0 8.4666665 8.4666666"
   version="1.1"
   id="svg145"
   sodipodi:docname="rutas.svg"
   inkscape:version="1.2.2 (732a01da63, 2022-12-09)"
   xmlns:inkscape="http://www.inkscape.org/namespaces/inkscape"
   xmlns:sodipodi="http://sodipodi.sourceforge.net/DTD/sodipodi-0.dtd"
   xmlns="http://www.w3.org/2000/svg"
   xmlns:svg="http://www.w3.org/2000/svg">
  <sodipodi:namedview
     id="namedview147"
     pagecolor="#ffffff"
     bordercolor="#000000"
     borderopacity="0.25"
     inkscape:showpageshadow="2"
     inkscape:pageopacity="0.0"
     inkscape:pagecheckerboard="true"
     inkscape:deskcolor="#d1d1d1"
     inkscape:document-units="px"
     showgrid="false"
     inkscape:zoom="17.678304"
     inkscape:cx="26.359994"
     inkscape:cy="15.838623"
     inkscape:window-width="1920"
     inkscape:window-height="1057"
     inkscape:window-x="1912"
     inkscape:window-y="-8"
     inkscape:window-maximized="1"
     inkscape:current-layer="layer1" />
  <defs
     id="defs142">
    <rect
       x="2.6020595"
       y="5.317252"
       width="26.416561"
       height="23.814501"
       id="rect10653" />
    <linearGradient
       id="linearGradient4108"
       inkscape:swatch="solid">
      <stop
         style="stop-color:#000000;stop-opacity:1;"
         offset="0"
         id="stop4106" />
    </linearGradient>
    <linearGradient
       id="linearGradient4033"
       inkscape:swatch="solid">
      <stop
         style="stop-color:#000000;stop-opacity:1;"
         offset="0"
         id="stop4031" />
    </linearGradient>
  </defs>
  <g
     inkscape:label="Capa 1"
     inkscape:groupmode="layer"
     id="layer1">
    <path
       style="fill:none;fill-opacity:1;stroke:none;stroke-width:0;stroke-dasharray:none;stroke-opacity:1"
       d="M 3.4892261,5.2905349 C 3.2203311,4.9045705 2.9065067,4.4540718 2.7918388,4.2894267 L 2.5833516,3.990072 3.2819168,3.9893061 c 0.3842107,-4.255e-4 1.0129329,-4.255e-4 1.3971605,0 L 5.3776729,3.9900729 5.1691592,4.2894276 C 4.2064206,5.6715927 3.9825624,5.9922893 3.9804981,5.9922893 c -0.0013,0 -0.222377,-0.3157891 -0.491272,-0.7017544 z"
       id="path1254" />
    <path
       style="fill:none;fill-opacity:1;stroke:none;stroke-width:0;stroke-dasharray:none;stroke-opacity:1"
       d="M 3.5007495,5.3070821 C 3.2381897,4.9302186 2.9300654,4.4878433 2.8160288,4.3240255 2.7019921,4.1602077 2.6027102,4.0177136 2.5954024,4.0073716 l -0.013287,-0.018803 h 0.2911772 0.2911772 l 0.022626,0.026431 c 0.1541243,0.1800511 0.384328,0.296966 0.6631628,0.3368046 0.051405,0.00734 0.063801,0.00795 0.16661,0.00813 0.1184519,2.076e-4 0.1474921,-0.00202 0.2339352,-0.01791 0.2428174,-0.044648 0.458423,-0.1607125 0.5962915,-0.3209968 l 0.027719,-0.032226 0.2520561,-1.163e-4 c 0.1386306,-6.39e-5 0.2512766,8.946e-4 0.2503241,0.00214 -9.473e-4,0.00124 -0.105432,0.151183 -0.2321771,0.3332025 -0.839667,1.2058539 -1.1624486,1.6682632 -1.1645187,1.6682632 -0.0013,0 -0.2171882,-0.3083428 -0.479748,-0.6852063 z"
       id="path4136" />
    <path
       style="fill:none;fill-opacity:1;stroke:none;stroke-width:0;stroke-dasharray:none;stroke-opacity:1"
       d="M 3.5007495,5.3070821 C 3.2381897,4.9302186 2.9300654,4.4878433 2.8160288,4.3240255 2.7019921,4.1602077 2.6027102,4.0177136 2.5954024,4.0073716 l -0.013287,-0.018803 h 0.2911772 0.2911772 l 0.022626,0.026431 c 0.1541243,0.1800511 0.384328,0.296966 0.6631628,0.3368046 0.051405,0.00734 0.063801,0.00795 0.16661,0.00813 0.1184519,2.076e-4 0.1474921,-0.00202 0.2339352,-0.01791 0.2428174,-0.044648 0.458423,-0.1607125 0.5962915,-0.3209968 l 0.027719,-0.032226 0.2520561,-1.163e-4 c 0.1386306,-6.39e-5 0.2512766,8.946e-4 0.2503241,0.00214 -9.473e-4,0.00124 -0.105432,0.151183 -0.2321771,0.3332025 -0.839667,1.2058539 -1.1624486,1.6682632 -1.1645187,1.6682632 -0.0013,0 -0.2171882,-0.3083428 -0.479748,-0.6852063 z"
       id="path4138" />
    <path
       style="fill:none;fill-opacity:1;stroke:none;stroke-width:0;stroke-dasharray:none;stroke-opacity:1"
       d="M 3.5007495,5.3070821 C 3.2381897,4.9302186 2.9300654,4.4878433 2.8160288,4.3240255 2.7019921,4.1602077 2.6027102,4.0177136 2.5954024,4.0073716 l -0.013287,-0.018803 h 0.2911772 0.2911772 l 0.022626,0.026431 c 0.1541243,0.1800511 0.384328,0.296966 0.6631628,0.3368046 0.051405,0.00734 0.063801,0.00795 0.16661,0.00813 0.1184519,2.076e-4 0.1474921,-0.00202 0.2339352,-0.01791 0.2428174,-0.044648 0.458423,-0.1607125 0.5962915,-0.3209968 l 0.027719,-0.032226 0.2520561,-1.163e-4 c 0.1386306,-6.39e-5 0.2512766,8.946e-4 0.2503241,0.00214 -9.473e-4,0.00124 -0.105432,0.151183 -0.2321771,0.3332025 -0.839667,1.2058539 -1.1624486,1.6682632 -1.1645187,1.6682632 -0.0013,0 -0.2171882,-0.3083428 -0.479748,-0.6852063 z"
       id="path4140" />
    <path
       style="fill:none;fill-opacity:1;stroke:none;stroke-width:0;stroke-dasharray:none;stroke-opacity:1"
       d="M 3.5007495,5.3070821 C 3.2381897,4.9302186 2.9300654,4.4878433 2.8160288,4.3240255 2.7019921,4.1602077 2.6027102,4.0177136 2.5954024,4.0073716 l -0.013287,-0.018803 h 0.2911772 0.2911772 l 0.022626,0.026431 c 0.1541243,0.1800511 0.384328,0.296966 0.6631628,0.3368046 0.051405,0.00734 0.063801,0.00795 0.16661,0.00813 0.1184519,2.076e-4 0.1474921,-0.00202 0.2339352,-0.01791 0.2428174,-0.044648 0.458423,-0.1607125 0.5962915,-0.3209968 l 0.027719,-0.032226 0.2520561,-1.163e-4 c 0.1386306,-6.39e-5 0.2512766,8.946e-4 0.2503241,0.00214 -9.473e-4,0.00124 -0.105432,0.151183 -0.2321771,0.3332025 -0.839667,1.2058539 -1.1624486,1.6682632 -1.1645187,1.6682632 -0.0013,0 -0.2171882,-0.3083428 -0.479748,-0.6852063 z"
       id="path4142" />
    <path
       style="fill:none;fill-opacity:1;stroke:none;stroke-width:0;stroke-dasharray:none;stroke-opacity:1"
       d="M 3.5007495,5.3070821 C 3.2381897,4.9302186 2.9300654,4.4878433 2.8160288,4.3240255 2.7019921,4.1602077 2.6027102,4.0177136 2.5954024,4.0073716 l -0.013287,-0.018803 h 0.2911772 0.2911772 l 0.022626,0.026431 c 0.1541243,0.1800511 0.384328,0.296966 0.6631628,0.3368046 0.051405,0.00734 0.063801,0.00795 0.16661,0.00813 0.1184519,2.076e-4 0.1474921,-0.00202 0.2339352,-0.01791 0.2428174,-0.044648 0.458423,-0.1607125 0.5962915,-0.3209968 l 0.027719,-0.032226 0.2520561,-1.163e-4 c 0.1386306,-6.39e-5 0.2512766,8.946e-4 0.2503241,0.00214 -9.473e-4,0.00124 -0.105432,0.151183 -0.2321771,0.3332025 -0.839667,1.2058539 -1.1624486,1.6682632 -1.1645187,1.6682632 -0.0013,0 -0.2171882,-0.3083428 -0.479748,-0.6852063 z"
       id="path4144" />
    <path
       style="fill:none;fill-opacity:1;stroke:none;stroke-width:0;stroke-dasharray:none;stroke-opacity:1"
       d="M 3.5007495,5.3070821 C 3.2381897,4.9302186 2.9300654,4.4878433 2.8160288,4.3240255 2.7019921,4.1602077 2.6027102,4.0177136 2.5954024,4.0073716 l -0.013287,-0.018803 h 0.2911772 0.2911772 l 0.022626,0.026431 c 0.1541243,0.1800511 0.384328,0.296966 0.6631628,0.3368046 0.051405,0.00734 0.063801,0.00795 0.16661,0.00813 0.1184519,2.076e-4 0.1474921,-0.00202 0.2339352,-0.01791 0.2428174,-0.044648 0.458423,-0.1607125 0.5962915,-0.3209968 l 0.027719,-0.032226 0.2520561,-1.163e-4 c 0.1386306,-6.39e-5 0.2512766,8.946e-4 0.2503241,0.00214 -9.473e-4,0.00124 -0.105432,0.151183 -0.2321771,0.3332025 -0.839667,1.2058539 -1.1624486,1.6682632 -1.1645187,1.6682632 -0.0013,0 -0.2171882,-0.3083428 -0.479748,-0.6852063 z"
       id="path4146" />
    <circle
       id="path10405"
       style="fill:#000000;stroke:#000000;stroke-width:0.264583"
       cx="4.1008363"
       cy="5.1784286"
       r="0" />
    <text
       xml:space="preserve"
       transform="scale(0.26458333)"
       id="text10651"
       style="fill:#000000;fill-opacity:1;stroke:none;stroke-opacity:1;stroke-width:0;stroke-dasharray:none;white-space:pre;shape-inside:url(#rect10653)" />
    <text
       xml:space="preserve"
       style="font-size:12.3606px;fill:#000000;fill-opacity:1;stroke:none;stroke-width:0;stroke-dasharray:none;stroke-opacity:1"
       x="-0.96246821"
       y="9.3426409"
       id="text10711"
       transform="scale(1.1451434,0.87325308)"><tspan
         sodipodi:role="line"
         id="tspan10709"
         style="stroke-width:0"
         x="-0.96246821"
         y="9.3426409">H</tspan></text>
  </g>
</svg>
