<?xml version="1.0" encoding="UTF-8" standalone="no"?>
<!-- Created with Inkscape (http://www.inkscape.org/) -->

<svg
   width="32"
   height="32"
   viewBox="0 0 8.4666666 8.4666666"
   version="1.1"
   id="svg11829"
   inkscape:version="1.2.2 (732a01da63, 2022-12-09)"
   sodipodi:docname="twitter.svg"
   xml:space="preserve"
   xmlns:inkscape="http://www.inkscape.org/namespaces/inkscape"
   xmlns:sodipodi="http://sodipodi.sourceforge.net/DTD/sodipodi-0.dtd"
   xmlns="http://www.w3.org/2000/svg"
   xmlns:svg="http://www.w3.org/2000/svg"><sodipodi:namedview
     id="namedview11831"
     pagecolor="#ffffff"
     bordercolor="#000000"
     borderopacity="0.25"
     inkscape:showpageshadow="2"
     inkscape:pageopacity="0.0"
     inkscape:pagecheckerboard="true"
     inkscape:deskcolor="#d1d1d1"
     inkscape:document-units="px"
     showgrid="false"
     inkscape:zoom="17.678304"
     inkscape:cx="16.630554"
     inkscape:cy="17.252786"
     inkscape:window-width="1920"
     inkscape:window-height="1057"
     inkscape:window-x="1912"
     inkscape:window-y="-8"
     inkscape:window-maximized="1"
     inkscape:current-layer="layer1" /><defs
     id="defs11826" /><g
     inkscape:label="Capa 1"
     inkscape:groupmode="layer"
     id="layer1"><path
       style="fill:#0000ff;stroke-width:0"
       d="m 1.1224917,6.3458197 c 0.074833,0 0.7183947,0.059866 0.9129599,-0.0449 0.1945652,-0.104766 0.8830269,-0.508863 0.8830269,-0.508863 0,0 -0.613629,-0.164632 -0.673495,-0.2544313 C 2.1851171,5.4478262 1.9007526,5.1634619 1.8558529,5.0586959 1.8109532,4.9539301 1.7361205,4.7593648 1.7361205,4.7593648 h 0.598662 c 0,0 -0.6585283,-0.1945653 -0.8381269,-0.5986621 C 1.3170569,3.7566056 1.2871238,3.2926423 1.2871238,3.2926423 c 0,0 0.5537626,0.2993311 0.5687291,0.2244985 C 1.8708195,3.4423079 1.5565218,3.367475 1.4367893,3.0232444 1.3170569,2.6790135 1.2721572,2.2749165 1.2571907,2.0504182 1.2422237,1.8259198 1.3918897,1.5565218 1.3918897,1.5565218 l 0.4190635,0.5088629 c 0,0 0.5088633,0.4489967 0.6136293,0.4938964 0.104765,0.0449 0.808194,0.4340302 0.957859,0.4639633 0.149666,0.029933 0.703428,0.1197324 0.703428,0.1197324 0,0 -0.0449,-0.7333613 0.179599,-1.047659 0.224498,-0.3142976 0.314298,-0.673495 0.942893,-0.6884615 0.628595,-0.014967 1.122492,0.4639632 1.122492,0.4639632 l 0.77826,-0.3442308 -0.538795,0.7034281 0.718394,-0.1496655 -0.673495,0.7333613 c 0,0 0.209532,0.942893 -0.359197,1.9306855 -0.568729,0.9877928 -1.002759,1.4068563 -1.002759,1.4068563 0,0 -0.329265,0.2993313 -0.748328,0.4789299 -0.419064,0.1795986 -0.763295,0.2544315 -0.763295,0.2544315 L 3.0681435,6.9594488 2.4844485,6.8995828 1.5714883,6.6451512 Z"
       id="path12093" /></g></svg>
