<?xml version="1.0" encoding="UTF-8" standalone="no"?>
<!-- Created with Inkscape (http://www.inkscape.org/) -->

<svg
   width="32"
   height="32"
   viewBox="0 0 8.4666666 8.4666666"
   version="1.1"
   id="svg11829"
   inkscape:version="1.2.2 (732a01da63, 2022-12-09)"
   sodipodi:docname="star.svg"
   xml:space="preserve"
   xmlns:inkscape="http://www.inkscape.org/namespaces/inkscape"
   xmlns:sodipodi="http://sodipodi.sourceforge.net/DTD/sodipodi-0.dtd"
   xmlns="http://www.w3.org/2000/svg"
   xmlns:svg="http://www.w3.org/2000/svg"><sodipodi:namedview
     id="namedview11831"
     pagecolor="#ffffff"
     bordercolor="#000000"
     borderopacity="0.25"
     inkscape:showpageshadow="2"
     inkscape:pageopacity="0.0"
     inkscape:pagecheckerboard="true"
     inkscape:deskcolor="#d1d1d1"
     inkscape:document-units="px"
     showgrid="false"
     inkscape:zoom="17.678304"
     inkscape:cx="16.687121"
     inkscape:cy="13.745662"
     inkscape:window-width="1920"
     inkscape:window-height="1057"
     inkscape:window-x="1912"
     inkscape:window-y="263"
     inkscape:window-maximized="1"
     inkscape:current-layer="layer1" /><defs
     id="defs11826" /><g
     inkscape:label="Capa 1"
     inkscape:groupmode="layer"
     id="layer1"><path
       sodipodi:type="star"
       style="fill:#4d4d4d;stroke-width:0"
       id="path222"
       inkscape:flatsided="false"
       sodipodi:sides="5"
       sodipodi:cx="2.0055184"
       sodipodi:cy="1.9606189"
       sodipodi:r1="4.3392949"
       sodipodi:r2="2.1696477"
       sodipodi:arg1="0.85618434"
       sodipodi:arg2="1.4845029"
       inkscape:rounded="0"
       inkscape:randomized="0"
       d="M 4.8491642,5.2382947 2.1925125,4.1221934 -0.2330017,5.6779442 0.00752326,2.806424 -2.2216088,0.9803764 0.58369545,0.32178069 1.6315302,-2.3625297 3.1247787,0.101956 6.0015083,0.26900858 4.1190823,2.4507402 Z"
       inkscape:transform-center-x="0.11493773"
       inkscape:transform-center-y="-0.30685826"
       transform="matrix(0.99453981,0,0,1.0130299,2.3825187,2.5451648)" /><path
       style="fill:#ff5555;stroke-width:0"
       d="m 8.173861,31.200387 c 0,-0.108336 0.8451139,-10.393555 0.8723173,-10.616286 l 0.028381,-0.232375 -4.1622669,-3.47028 C 1.5281433,14.059921 0.76980415,13.403013 0.85582771,13.367549 0.91401936,13.343558 3.2643911,12.774873 6.0788762,12.103802 8.893361,11.432731 11.205296,10.874499 11.216509,10.863286 c 0.01121,-0.01121 0.895586,-2.3040916 1.965271,-5.095285 1.069686,-2.7911933 1.952345,-5.08120424 1.961465,-5.08891327 0.0091,-0.007709 1.263626,2.08501927 2.787794,4.65050717 1.524168,2.5654882 2.786287,4.6738391 2.80471,4.6852251 0.01842,0.01139 2.424159,0.16239 5.34608,0.335566 2.921922,0.173175 5.332625,0.320989 5.357118,0.328477 0.02449,0.0075 -1.537335,1.881086 -3.47073,4.163554 l -3.515262,4.149941 1.361508,5.293369 c 0.748829,2.911353 1.356098,5.298622 1.349486,5.305043 -0.0066,0.0064 -2.241949,-0.941517 -4.967414,-2.106526 l -4.95539,-2.118199 -4.505169,2.943477 c -2.477843,1.618912 -4.5179824,2.943476 -4.5336422,2.943476 -0.01566,0 -0.028473,-0.02368 -0.028473,-0.05261 z"
       id="path295"
       transform="scale(0.26458333)" /><path
       style="fill:#ff5555;stroke-width:0"
       d="m 8.2304275,31.002949 c 0,-0.207181 0.247276,-3.296278 0.6252297,-7.810679 C 8.9806839,21.698914 9.0757026,20.436132 9.0668098,20.386088 9.0579175,20.336044 7.6378933,19.115536 5.9112005,17.67385 3.1634933,15.379677 1.9141898,14.32456 1.0764598,13.590602 L 0.85188978,13.39385 2.4906226,12.995847 c 0.901303,-0.218901 3.2127299,-0.774886 5.1365038,-1.235522 1.9237745,-0.460636 3.5324346,-0.864205 3.5747996,-0.896821 0.04237,-0.03261 0.931861,-2.2838031 1.976655,-5.0026398 1.044796,-2.7188368 1.919811,-4.97940466 1.944479,-5.02348416 0.03089,-0.0552065 0.552109,0.77012056 1.675052,2.65239586 0.89661,1.5028973 2.142083,3.5885603 2.767716,4.6348066 l 1.137515,1.9022655 0.3394,0.03354 c 0.186669,0.01845 2.515795,0.162341 5.175835,0.319768 2.660041,0.157427 4.90657,0.304513 4.992289,0.326858 0.153289,0.03996 0.135191,0.06527 -1.100754,1.539639 -0.691133,0.824457 -2.254793,2.679303 -3.4748,4.121881 -1.220008,1.442577 -2.208295,2.651686 -2.196195,2.686909 0.03354,0.09762 2.0753,8.064674 2.372114,9.256099 0.143388,0.575565 0.273304,1.088664 0.288703,1.140221 0.0298,0.09977 -0.560129,-0.143713 -6.587939,-2.719046 -1.754155,-0.749448 -3.225327,-1.362633 -3.269271,-1.362633 -0.04394,0 -0.263296,0.123406 -0.48745,0.274235 -0.357717,0.240703 -8.0668245,5.266504 -8.3975728,5.474634 -0.122914,0.07735 -0.1272747,0.07337 -0.1272747,-0.116001 z"
       id="path366"
       transform="scale(0.26458333)" /><path
       style="fill:#ff5555;stroke-width:0"
       d="M 8.2306889,30.987646 C 8.2309151,30.780287 8.452007,28.021345 8.8847737,22.824588 L 9.0896864,20.363944 8.8438981,20.144797 C 8.7087144,20.024266 7.2999084,18.840692 5.7132177,17.514632 1.3537855,13.871283 0.83990722,13.422401 0.97235934,13.373404 1.0331939,13.350899 2.8502394,12.908044 5.0102383,12.38928 7.170237,11.870515 9.4431904,11.320743 10.061246,11.167563 c 0.618054,-0.15318 1.1314,-0.278509 1.140766,-0.278509 0.02735,0 0.705286,-1.7329523 2.34217,-5.9871251 0.842056,-2.1884575 1.551988,-4.01649974 1.577628,-4.06231618 0.03323,-0.0593792 0.587872,0.82341988 1.93129,3.07394938 1.036568,1.7364885 2.281924,3.8222218 2.767457,4.6349627 l 0.882786,1.4777112 0.367683,0.0332 c 0.202225,0.01826 2.531351,0.162045 5.175836,0.31952 2.644484,0.157475 4.877843,0.30485 4.963019,0.327499 0.153514,0.04082 0.147835,0.04961 -0.650515,1.006896 -0.970197,1.163344 -1.883262,2.248524 -4.27965,5.086381 -0.998085,1.181953 -1.814699,2.192135 -1.814699,2.244848 0,0.05271 0.433954,1.78317 0.964342,3.84546 0.530388,2.062292 1.116912,4.361251 1.303387,5.1088 0.186475,0.747548 0.351806,1.401768 0.367402,1.453821 0.03341,0.111502 0.378582,0.253065 -5.435174,-2.229084 -2.333368,-0.996218 -4.306126,-1.814435 -4.383905,-1.81826 -0.09809,-0.0048 -1.484532,0.86935 -4.52532,2.853284 -2.411148,1.573131 -4.4157238,2.879198 -4.4546133,2.902372 -0.05158,0.03074 -0.070638,-0.01615 -0.070447,-0.173328 z"
       id="path368"
       transform="scale(0.26458333)" /><path
       style="fill:#ff5555;stroke-width:0"
       d="m 8.2304275,30.983439 c 0,-0.209149 0.4054309,-5.274796 0.7072149,-8.836279 0.077706,-0.917039 0.1412828,-1.697206 0.1412828,-1.733706 0,-0.06751 -0.8156993,-0.767995 -3.64854,-3.133201 C 2.4685545,14.80735 0.96289354,13.528117 0.90626173,13.436484 0.87502906,13.385949 1.7128878,13.175059 6.731415,11.970286 8.4114404,11.56697 10.10994,11.155704 10.505858,11.05636 l 0.719851,-0.180626 0.346981,-0.8842625 c 0.190841,-0.4863448 1.054879,-2.7219851 1.920086,-4.9680902 0.865208,-2.246105 1.595726,-4.12425035 1.623375,-4.1736563 0.05289,-0.0945044 0.178494,0.10973197 3.886167,6.3188999 0.923849,1.5471518 1.700986,2.8261438 1.726973,2.8422041 0.04596,0.0284 2.940899,0.215418 7.893364,0.509918 1.337798,0.07955 2.503501,0.163148 2.59045,0.185766 0.156694,0.04076 0.148482,0.05261 -0.930052,1.342154 -0.598478,0.715566 -1.905775,2.268317 -2.905105,3.450557 -2.30808,2.730535 -2.912931,3.467257 -2.912931,3.548014 0,0.03563 0.192615,0.817388 0.428033,1.737229 0.235419,0.919841 0.678842,2.652453 0.985385,3.850249 0.306543,1.197796 0.701357,2.750547 0.877365,3.450557 0.176008,0.700011 0.33187,1.315336 0.34636,1.367389 0.03048,0.109495 0.399183,0.259661 -4.95637,-2.018643 -2.068921,-0.880139 -4.013501,-1.704866 -4.321292,-1.832727 l -0.559617,-0.232474 -0.260597,0.150861 c -0.143328,0.08297 -1.304249,0.830447 -2.579823,1.661052 -3.812566,2.482595 -6.0482944,3.935915 -6.1233253,3.980428 -0.051629,0.03063 -0.070708,-0.01732 -0.070708,-0.17772 z"
       id="path370"
       transform="scale(0.26458333)" /></g></svg>
